<svg xmlns="http://www.w3.org/2000/svg" viewBox="0 0 180 180" fill="none">
  <!-- Background -->
  <rect width="180" height="180" rx="40" fill="#7B1E1E"/>
  <!-- Wine glass -->
  <path d="M90 30C70 30 55 50 55 75C55 97 72 115 85 120V145H70C66 145 63 148 63 152V160C63 164 66 167 70 167H110C114 167 117 164 117 160V152C117 148 114 145 110 145H95V120C108 115 125 97 125 75C125 50 110 30 90 30Z" fill="white"/>
  <!-- Wine level -->
  <path d="M90 45C75 45 65 60 65 75C65 85 70 93 78 100C85 93 88 88 90 88C92 88 95 93 102 100C110 93 115 85 115 75C115 60 105 45 90 45Z" fill="#9B3E3E"/>
</svg>
