<svg xmlns="http://www.w3.org/2000/svg" viewBox="0 0 32 32" fill="none">
  <!-- Wine glass -->
  <path d="M16 2C12 2 9 5 9 9C9 12.5 11.5 15.5 15 16.7V26H12C11.4 26 11 26.4 11 27V29C11 29.6 11.4 30 12 30H20C20.6 30 21 29.6 21 29V27C21 26.4 20.6 26 20 26H17V16.7C20.5 15.5 23 12.5 23 9C23 5 20 2 16 2Z" fill="#7B1E1E"/>
  <!-- Wine level -->
  <path d="M16 4C13.2 4 11 6.2 11 9C11 10.5 11.6 11.8 12.5 12.8C13.8 11.5 15.8 11 16 11C16.2 11 18.2 11.5 19.5 12.8C20.4 11.8 21 10.5 21 9C21 6.2 18.8 4 16 4Z" fill="#9B3E3E"/>
</svg>
